<svg width="880" height="128" viewBox="0 0 880 128" fill="none" xmlns="http://www.w3.org/2000/svg">
<path opacity="0.6" d="M2.548 23V5.052H8.82C12.964 5.052 15.708 7.292 15.708 10.736C15.708 14.18 12.936 16.448 8.764 16.448H5.068V23H2.548ZM9.044 7.32H5.068V14.18H9.044C11.452 14.18 13.048 12.808 13.048 10.736C13.048 8.664 11.452 7.32 9.044 7.32ZM19.1085 23V3.736H21.6005V23H19.1085ZM32.1499 23.336C28.0619 23.336 25.1219 20.172 25.1219 16.28C25.1219 12.388 27.9499 9.252 31.7579 9.252C35.5099 9.252 38.3659 12.248 38.3659 16.028C38.3659 16.364 38.3379 16.728 38.2819 16.924H27.6419C27.9219 19.332 29.6859 21.124 32.2339 21.124C33.7459 21.124 35.0899 20.536 35.9859 19.64L37.3019 21.348C36.2099 22.524 34.3059 23.336 32.1499 23.336ZM31.7859 11.38C29.6019 11.38 28.0619 13.032 27.6979 15.272H35.8179C35.4259 12.78 33.8859 11.38 31.7859 11.38ZM51.8739 23V20.9C50.8379 22.384 49.2139 23.336 47.1699 23.336C43.5299 23.336 40.6739 20.34 40.6739 16.28C40.6739 12.304 43.4179 9.252 47.1699 9.252C49.2139 9.252 50.8379 10.148 51.8739 11.604V9.588H54.3659V23H51.8739ZM47.5339 21.012C50.0539 21.012 51.8739 18.884 51.8739 16.28C51.8739 13.648 50.0539 11.576 47.5339 11.576C45.0139 11.576 43.1659 13.648 43.1659 16.28C43.1659 18.884 45.0139 21.012 47.5339 21.012ZM60.4693 12.976C60.4693 15.86 68.0853 14.376 68.0853 19.332C68.0853 21.6 66.2093 23.336 62.8493 23.336C60.3853 23.336 58.5373 22.468 57.4733 21.152L58.9293 19.528C59.8533 20.648 61.2533 21.32 63.0173 21.32C64.6973 21.32 65.6213 20.536 65.6213 19.388C65.6213 16.336 58.0333 17.736 58.0333 12.976C58.0333 11.016 59.7413 9.252 62.8773 9.252C65.1733 9.252 66.9373 10.008 67.8613 11.324L66.3773 12.808C65.4813 11.688 64.3893 11.268 62.9333 11.268C61.4213 11.268 60.4693 11.996 60.4693 12.976ZM77.4662 23.336C73.3782 23.336 70.4382 20.172 70.4382 16.28C70.4382 12.388 73.2662 9.252 77.0742 9.252C80.8262 9.252 83.6822 12.248 83.6822 16.028C83.6822 16.364 83.6542 16.728 83.5982 16.924H72.9582C73.2382 19.332 75.0022 21.124 77.5502 21.124C79.0622 21.124 80.4062 20.536 81.3022 19.64L82.6182 21.348C81.5262 22.524 79.6222 23.336 77.4662 23.336ZM77.1022 11.38C74.9182 11.38 73.3782 13.032 73.0142 15.272H81.1342C80.7422 12.78 79.2022 11.38 77.1022 11.38ZM95.3423 9.588H97.8343V11.632C98.8703 10.176 100.494 9.252 102.51 9.252C106.15 9.252 109.034 12.248 109.034 16.308C109.034 20.284 106.262 23.336 102.51 23.336C100.494 23.336 98.8703 22.468 97.8343 21.04V28.488H95.3423V9.588ZM102.202 11.576C99.6543 11.576 97.8343 13.704 97.8343 16.308C97.8343 18.94 99.6543 21.012 102.202 21.012C104.722 21.012 106.542 18.94 106.542 16.308C106.542 13.704 104.722 11.576 102.202 11.576ZM115.082 15.272V23H112.59V9.588H115.082V11.268C115.81 10.036 116.958 9.252 118.442 9.252C119.282 9.252 120.01 9.448 120.486 9.84L119.45 12.164C119.002 11.856 118.358 11.632 117.714 11.632C116.09 11.632 115.082 13.032 115.082 15.272ZM128.119 23.336C124.031 23.336 121.091 20.172 121.091 16.28C121.091 12.388 123.919 9.252 127.727 9.252C131.479 9.252 134.335 12.248 134.335 16.028C134.335 16.364 134.307 16.728 134.251 16.924H123.611C123.891 19.332 125.655 21.124 128.203 21.124C129.715 21.124 131.059 20.536 131.955 19.64L133.271 21.348C132.179 22.524 130.275 23.336 128.119 23.336ZM127.755 11.38C125.571 11.38 124.031 13.032 123.667 15.272H131.787C131.395 12.78 129.855 11.38 127.755 11.38ZM139.027 12.976C139.027 15.86 146.643 14.376 146.643 19.332C146.643 21.6 144.767 23.336 141.407 23.336C138.943 23.336 137.095 22.468 136.031 21.152L137.487 19.528C138.411 20.648 139.811 21.32 141.575 21.32C143.255 21.32 144.179 20.536 144.179 19.388C144.179 16.336 136.591 17.736 136.591 12.976C136.591 11.016 138.299 9.252 141.435 9.252C143.731 9.252 145.495 10.008 146.419 11.324L144.935 12.808C144.039 11.688 142.947 11.268 141.491 11.268C139.979 11.268 139.027 11.996 139.027 12.976ZM156.024 23.336C151.936 23.336 148.996 20.172 148.996 16.28C148.996 12.388 151.824 9.252 155.632 9.252C159.384 9.252 162.24 12.248 162.24 16.028C162.24 16.364 162.212 16.728 162.156 16.924H151.516C151.796 19.332 153.56 21.124 156.108 21.124C157.62 21.124 158.964 20.536 159.86 19.64L161.176 21.348C160.084 22.524 158.18 23.336 156.024 23.336ZM155.66 11.38C153.476 11.38 151.936 13.032 151.572 15.272H159.692C159.3 12.78 157.76 11.38 155.66 11.38ZM168.02 15.188V23H165.528V9.588H168.02V11.24C168.86 9.98 170.288 9.252 172.052 9.252C175.216 9.252 177.26 11.408 177.26 14.796V23H174.768V15.188C174.768 12.976 173.48 11.576 171.38 11.576C169.28 11.576 168.02 12.976 168.02 15.188ZM180.033 11.8V9.588H182.273V6.256H184.737V9.588H188.545V11.8H184.765V18.884C184.765 20.312 185.409 21.012 186.613 21.012C187.285 21.012 187.957 20.76 188.349 20.312L189.497 22.188C188.881 22.804 187.761 23.336 186.277 23.336C183.757 23.336 182.245 21.852 182.245 18.968V11.8H180.033ZM201.303 9.588L205.783 20.06L209.591 9.588H212.111L206.315 25.184C205.447 27.62 204.047 28.824 201.975 28.824C200.799 28.824 199.595 28.348 198.755 27.592L199.931 25.66C200.519 26.22 201.275 26.5 202.031 26.5C203.011 26.5 203.655 25.94 204.243 24.316L204.663 23.168L198.587 9.588H201.303ZM220.147 23.336C216.311 23.336 213.315 20.172 213.315 16.28C213.315 12.388 216.311 9.252 220.147 9.252C224.011 9.252 227.007 12.388 227.007 16.28C227.007 20.172 224.011 23.336 220.147 23.336ZM220.175 21.012C222.695 21.012 224.515 18.884 224.515 16.28C224.515 13.648 222.695 11.576 220.175 11.576C217.655 11.576 215.807 13.648 215.807 16.28C215.807 18.884 217.655 21.012 220.175 21.012ZM232.826 9.588V17.008C232.826 19.36 234.198 20.928 236.27 20.928C238.398 20.928 239.77 19.36 239.77 17.008V9.588H242.262V17.204C242.262 20.844 239.882 23.252 236.27 23.252C232.686 23.252 230.334 20.844 230.334 17.204V9.588H232.826ZM249.067 15.272V23H246.575V9.588H249.067V11.268C249.795 10.036 250.943 9.252 252.427 9.252C253.267 9.252 253.995 9.448 254.471 9.84L253.435 12.164C252.987 11.856 252.343 11.632 251.699 11.632C250.075 11.632 249.067 13.032 249.067 15.272ZM282.322 9.588H284.982L280.67 23H277.618L274.342 12.752L271.094 23H268.266L263.954 9.588H266.614L269.722 20.228L273.082 9.588H275.798L279.186 20.256L282.322 9.588ZM290.402 9.588V23H287.91V9.588H290.402ZM289.142 7.264C288.302 7.264 287.602 6.564 287.602 5.724C287.602 4.884 288.302 4.184 289.142 4.184C289.982 4.184 290.682 4.884 290.682 5.724C290.682 6.564 289.982 7.264 289.142 7.264ZM297.396 15.188V23H294.904V9.588H297.396V11.24C298.236 9.98 299.664 9.252 301.428 9.252C304.592 9.252 306.636 11.408 306.636 14.796V23H304.144V15.188C304.144 12.976 302.856 11.576 300.756 11.576C298.656 11.576 297.396 12.976 297.396 15.188ZM313.413 15.188V23H310.921V9.588H313.413V11.24C314.253 9.98 315.681 9.252 317.445 9.252C320.609 9.252 322.653 11.408 322.653 14.796V23H320.161V15.188C320.161 12.976 318.873 11.576 316.773 11.576C314.673 11.576 313.413 12.976 313.413 15.188ZM329.429 9.588V23H326.937V9.588H329.429ZM328.169 7.264C327.329 7.264 326.629 6.564 326.629 5.724C326.629 4.884 327.329 4.184 328.169 4.184C329.009 4.184 329.709 4.884 329.709 5.724C329.709 6.564 329.009 7.264 328.169 7.264ZM336.423 15.188V23H333.931V9.588H336.423V11.24C337.263 9.98 338.691 9.252 340.455 9.252C343.619 9.252 345.663 11.408 345.663 14.796V23H343.171V15.188C343.171 12.976 341.883 11.576 339.783 11.576C337.683 11.576 336.423 12.976 336.423 15.188ZM351.292 25.156C352.188 25.828 353.672 26.556 355.604 26.556C358.432 26.556 360.056 25.044 360.056 22.188V20.592C359.02 22.048 357.396 22.972 355.352 22.972C351.768 22.972 348.968 20.06 348.968 16.112C348.968 12.22 351.768 9.308 355.352 9.308C357.396 9.308 359.02 10.176 360.056 11.576V9.588H362.52V22.048C362.52 27.004 359.384 28.824 355.744 28.824C353.28 28.824 351.32 28.208 350.032 27.116L351.292 25.156ZM355.772 20.648C358.264 20.648 360.056 18.604 360.056 16.084C360.056 13.592 358.264 11.576 355.772 11.576C353.28 11.576 351.46 13.592 351.46 16.084C351.46 18.604 353.28 20.648 355.772 20.648ZM384.979 12.892C384.083 12.052 382.907 11.576 381.451 11.576C378.791 11.576 376.943 13.648 376.943 16.28C376.943 18.884 378.791 21.012 381.423 21.012C382.879 21.012 384.139 20.536 385.035 19.64L386.323 21.46C385.259 22.608 383.383 23.336 381.339 23.336C377.419 23.336 374.451 20.172 374.451 16.28C374.451 12.388 377.447 9.252 381.367 9.252C383.523 9.252 385.287 9.98 386.407 11.128L384.979 12.892ZM394.62 23.336C390.784 23.336 387.788 20.172 387.788 16.28C387.788 12.388 390.784 9.252 394.62 9.252C398.484 9.252 401.48 12.388 401.48 16.28C401.48 20.172 398.484 23.336 394.62 23.336ZM394.648 21.012C397.168 21.012 398.988 18.884 398.988 16.28C398.988 13.648 397.168 11.576 394.648 11.576C392.128 11.576 390.28 13.648 390.28 16.28C390.28 18.884 392.128 21.012 394.648 21.012ZM407.299 9.588V17.008C407.299 19.36 408.671 20.928 410.743 20.928C412.871 20.928 414.243 19.36 414.243 17.008V9.588H416.735V17.204C416.735 20.844 414.355 23.252 410.743 23.252C407.159 23.252 404.807 20.844 404.807 17.204V9.588H407.299ZM421.048 9.588H423.54V11.632C424.576 10.176 426.2 9.252 428.216 9.252C431.856 9.252 434.74 12.248 434.74 16.308C434.74 20.284 431.968 23.336 428.216 23.336C426.2 23.336 424.576 22.468 423.54 21.04V28.488H421.048V9.588ZM427.908 11.576C425.36 11.576 423.54 13.704 423.54 16.308C423.54 18.94 425.36 21.012 427.908 21.012C430.428 21.012 432.248 18.94 432.248 16.308C432.248 13.704 430.428 11.576 427.908 11.576ZM444.147 23.336C440.311 23.336 437.315 20.172 437.315 16.28C437.315 12.388 440.311 9.252 444.147 9.252C448.011 9.252 451.007 12.388 451.007 16.28C451.007 20.172 448.011 23.336 444.147 23.336ZM444.175 21.012C446.695 21.012 448.515 18.884 448.515 16.28C448.515 13.648 446.695 11.576 444.175 11.576C441.655 11.576 439.807 13.648 439.807 16.28C439.807 18.884 441.655 21.012 444.175 21.012ZM457.05 15.188V23H454.558V9.588H457.05V11.24C457.89 9.98 459.318 9.252 461.082 9.252C464.246 9.252 466.29 11.408 466.29 14.796V23H463.798V15.188C463.798 12.976 462.51 11.576 460.41 11.576C458.31 11.576 457.05 12.976 457.05 15.188ZM489.167 23V20.9C488.131 22.384 486.507 23.336 484.463 23.336C480.823 23.336 477.967 20.34 477.967 16.28C477.967 12.304 480.711 9.252 484.463 9.252C486.507 9.252 488.131 10.148 489.167 11.604V9.588H491.659V23H489.167ZM484.827 21.012C487.347 21.012 489.167 18.884 489.167 16.28C489.167 13.648 487.347 11.576 484.827 11.576C482.307 11.576 480.459 13.648 480.459 16.28C480.459 18.884 482.307 21.012 484.827 21.012ZM494.682 11.8V9.588H496.922V6.256H499.386V9.588H503.194V11.8H499.414V18.884C499.414 20.312 500.058 21.012 501.262 21.012C501.934 21.012 502.606 20.76 502.998 20.312L504.146 22.188C503.53 22.804 502.41 23.336 500.926 23.336C498.406 23.336 496.894 21.852 496.894 18.968V11.8H494.682ZM513.712 11.8V9.588H515.952V6.256H518.416V9.588H522.224V11.8H518.444V18.884C518.444 20.312 519.088 21.012 520.292 21.012C520.964 21.012 521.636 20.76 522.028 20.312L523.176 22.188C522.56 22.804 521.44 23.336 519.956 23.336C517.436 23.336 515.924 21.852 515.924 18.968V11.8H513.712ZM528.373 15.188V23H525.881V3.736H528.373V11.24C529.213 9.98 530.641 9.252 532.405 9.252C535.569 9.252 537.613 11.408 537.613 14.796V23H535.121V15.188C535.121 12.976 533.833 11.576 531.733 11.576C529.633 11.576 528.373 12.976 528.373 15.188ZM547.946 23.336C543.858 23.336 540.918 20.172 540.918 16.28C540.918 12.388 543.746 9.252 547.554 9.252C551.306 9.252 554.162 12.248 554.162 16.028C554.162 16.364 554.134 16.728 554.078 16.924H543.438C543.718 19.332 545.482 21.124 548.03 21.124C549.542 21.124 550.886 20.536 551.782 19.64L553.098 21.348C552.006 22.524 550.102 23.336 547.946 23.336ZM547.582 11.38C545.398 11.38 543.858 13.032 543.494 15.272H551.614C551.222 12.78 549.682 11.38 547.582 11.38ZM565.962 23V5.052H572.234C576.378 5.052 579.122 7.292 579.122 10.736C579.122 14.18 576.35 16.448 572.178 16.448H568.482V23H565.962ZM572.458 7.32H568.482V14.18H572.458C574.866 14.18 576.462 12.808 576.462 10.736C576.462 8.664 574.866 7.32 572.458 7.32ZM590.565 4.716C595.633 4.716 599.777 8.916 599.777 14.068C599.777 19.192 595.633 23.336 590.565 23.336C585.497 23.336 581.381 19.164 581.381 14.04C581.381 8.888 585.497 4.716 590.565 4.716ZM590.565 20.844C594.177 20.844 597.089 17.792 597.089 14.068C597.089 10.288 594.177 7.208 590.565 7.208C586.981 7.208 584.069 10.26 584.069 14.04C584.069 17.792 586.981 20.844 590.565 20.844ZM614.731 7.488L612.939 9.224C612.127 8.076 610.419 7.096 608.487 7.096C606.331 7.096 604.987 8.048 604.987 9.504C604.987 13.452 615.011 11.66 615.011 18.044C615.011 21.208 612.435 23.336 608.431 23.336C605.071 23.336 602.887 22.02 601.655 20.284L603.475 18.576C604.679 20.144 606.415 20.956 608.459 20.956C610.923 20.956 612.323 19.892 612.323 18.212C612.323 13.844 602.299 15.776 602.299 9.588C602.299 6.704 604.847 4.716 608.571 4.716C611.371 4.716 613.639 5.948 614.731 7.488ZM618.665 23.252C617.741 23.252 616.957 22.496 616.957 21.544C616.957 20.592 617.741 19.78 618.665 19.78C619.645 19.78 620.429 20.592 620.429 21.544C620.429 22.496 619.645 23.252 618.665 23.252ZM646.618 6.956L644.938 8.916C643.734 7.908 642.222 7.208 640.206 7.208C636.622 7.208 633.738 10.26 633.738 14.04C633.738 17.792 636.622 20.844 640.43 20.844C642.194 20.844 643.846 20.256 644.966 19.192L646.618 21.04C644.966 22.664 642.922 23.336 640.262 23.336C635.054 23.336 631.05 19.164 631.05 14.04C631.05 8.888 635.138 4.716 640.206 4.716C643.062 4.716 645.05 5.528 646.618 6.956ZM654.854 23.336C651.018 23.336 648.022 20.172 648.022 16.28C648.022 12.388 651.018 9.252 654.854 9.252C658.718 9.252 661.714 12.388 661.714 16.28C661.714 20.172 658.718 23.336 654.854 23.336ZM654.882 21.012C657.402 21.012 659.222 18.884 659.222 16.28C659.222 13.648 657.402 11.576 654.882 11.576C652.362 11.576 650.514 13.648 650.514 16.28C650.514 18.884 652.362 21.012 654.882 21.012ZM667.533 9.588V17.008C667.533 19.36 668.905 20.928 670.977 20.928C673.105 20.928 674.477 19.36 674.477 17.008V9.588H676.969V17.204C676.969 20.844 674.589 23.252 670.977 23.252C667.393 23.252 665.041 20.844 665.041 17.204V9.588H667.533ZM681.281 9.588H683.773V11.632C684.809 10.176 686.433 9.252 688.449 9.252C692.089 9.252 694.973 12.248 694.973 16.308C694.973 20.284 692.201 23.336 688.449 23.336C686.433 23.336 684.809 22.468 683.773 21.04V28.488H681.281V9.588ZM688.141 11.576C685.593 11.576 683.773 13.704 683.773 16.308C683.773 18.94 685.593 21.012 688.141 21.012C690.661 21.012 692.481 18.94 692.481 16.308C692.481 13.704 690.661 11.576 688.141 11.576ZM704.381 23.336C700.545 23.336 697.549 20.172 697.549 16.28C697.549 12.388 700.545 9.252 704.381 9.252C708.245 9.252 711.241 12.388 711.241 16.28C711.241 20.172 708.245 23.336 704.381 23.336ZM704.409 21.012C706.929 21.012 708.749 18.884 708.749 16.28C708.749 13.648 706.929 11.576 704.409 11.576C701.889 11.576 700.041 13.648 700.041 16.28C700.041 18.884 701.889 21.012 704.409 21.012ZM717.284 15.188V23H714.792V9.588H717.284V11.24C718.124 9.98 719.552 9.252 721.316 9.252C724.48 9.252 726.524 11.408 726.524 14.796V23H724.032V15.188C724.032 12.976 722.744 11.576 720.644 11.576C718.544 11.576 717.284 12.976 717.284 15.188ZM732.377 12.976C732.377 15.86 739.993 14.376 739.993 19.332C739.993 21.6 738.117 23.336 734.757 23.336C732.293 23.336 730.445 22.468 729.381 21.152L730.837 19.528C731.761 20.648 733.161 21.32 734.925 21.32C736.605 21.32 737.529 20.536 737.529 19.388C737.529 16.336 729.941 17.736 729.941 12.976C729.941 11.016 731.649 9.252 734.785 9.252C737.081 9.252 738.845 10.008 739.769 11.324L738.285 12.808C737.389 11.688 736.297 11.268 734.841 11.268C733.329 11.268 732.377 11.996 732.377 12.976ZM761.246 12.892C760.35 12.052 759.174 11.576 757.718 11.576C755.058 11.576 753.21 13.648 753.21 16.28C753.21 18.884 755.058 21.012 757.69 21.012C759.146 21.012 760.406 20.536 761.302 19.64L762.59 21.46C761.526 22.608 759.65 23.336 757.606 23.336C753.686 23.336 750.718 20.172 750.718 16.28C750.718 12.388 753.714 9.252 757.634 9.252C759.79 9.252 761.554 9.98 762.674 11.128L761.246 12.892ZM775.255 23V20.9C774.219 22.384 772.595 23.336 770.551 23.336C766.911 23.336 764.055 20.34 764.055 16.28C764.055 12.304 766.799 9.252 770.551 9.252C772.595 9.252 774.219 10.148 775.255 11.604V9.588H777.747V23H775.255ZM770.915 21.012C773.435 21.012 775.255 18.884 775.255 16.28C775.255 13.648 773.435 11.576 770.915 11.576C768.395 11.576 766.547 13.648 766.547 16.28C766.547 18.884 768.395 21.012 770.915 21.012ZM784.774 15.188V23H782.282V9.588H784.774V11.24C785.614 9.98 787.042 9.252 788.806 9.252C791.97 9.252 794.014 11.408 794.014 14.796V23H791.522V15.188C791.522 12.976 790.234 11.576 788.134 11.576C786.034 11.576 784.774 12.976 784.774 15.188ZM800.791 15.188V23H798.299V9.588H800.791V11.24C801.631 9.98 803.059 9.252 804.823 9.252C807.987 9.252 810.031 11.408 810.031 14.796V23H807.539V15.188C807.539 12.976 806.251 11.576 804.151 11.576C802.051 11.576 800.791 12.976 800.791 15.188ZM820.168 23.336C816.332 23.336 813.336 20.172 813.336 16.28C813.336 12.388 816.332 9.252 820.168 9.252C824.032 9.252 827.028 12.388 827.028 16.28C827.028 20.172 824.032 23.336 820.168 23.336ZM820.196 21.012C822.716 21.012 824.536 18.884 824.536 16.28C824.536 13.648 822.716 11.576 820.196 11.576C817.676 11.576 815.828 13.648 815.828 16.28C815.828 18.884 817.676 21.012 820.196 21.012ZM829.067 11.8V9.588H831.307V6.256H833.771V9.588H837.579V11.8H833.799V18.884C833.799 20.312 834.443 21.012 835.647 21.012C836.319 21.012 836.991 20.76 837.383 20.312L838.531 22.188C837.915 22.804 836.795 23.336 835.311 23.336C832.791 23.336 831.279 21.852 831.279 18.968V11.8H829.067ZM856.777 9.252C860.417 9.252 863.301 12.248 863.301 16.308C863.301 20.284 860.529 23.336 856.777 23.336C854.761 23.336 853.137 22.468 852.101 21.04V23H849.609V3.736H852.101V11.632C853.137 10.176 854.761 9.252 856.777 9.252ZM856.469 11.576C853.921 11.576 852.101 13.704 852.101 16.308C852.101 18.94 853.921 21.012 856.469 21.012C858.989 21.012 860.809 18.94 860.809 16.308C860.809 13.704 858.989 11.576 856.469 11.576ZM872.904 23.336C868.816 23.336 865.876 20.172 865.876 16.28C865.876 12.388 868.704 9.252 872.512 9.252C876.264 9.252 879.12 12.248 879.12 16.028C879.12 16.364 879.092 16.728 879.036 16.924H868.396C868.676 19.332 870.44 21.124 872.988 21.124C874.5 21.124 875.844 20.536 876.74 19.64L878.056 21.348C876.964 22.524 875.06 23.336 872.904 23.336ZM872.54 11.38C870.356 11.38 868.816 13.032 868.452 15.272H876.572C876.18 12.78 874.64 11.38 872.54 11.38ZM11.956 44.892C11.06 44.052 9.884 43.576 8.428 43.576C5.768 43.576 3.92 45.648 3.92 48.28C3.92 50.884 5.768 53.012 8.4 53.012C9.856 53.012 11.116 52.536 12.012 51.64L13.3 53.46C12.236 54.608 10.36 55.336 8.316 55.336C4.396 55.336 1.428 52.172 1.428 48.28C1.428 44.388 4.424 41.252 8.344 41.252C10.5 41.252 12.264 41.98 13.384 43.128L11.956 44.892ZM21.5972 55.336C17.7612 55.336 14.7652 52.172 14.7652 48.28C14.7652 44.388 17.7612 41.252 21.5972 41.252C25.4612 41.252 28.4572 44.388 28.4572 48.28C28.4572 52.172 25.4612 55.336 21.5972 55.336ZM21.6252 53.012C24.1452 53.012 25.9652 50.884 25.9652 48.28C25.9652 45.648 24.1452 43.576 21.6252 43.576C19.1052 43.576 17.2572 45.648 17.2572 48.28C17.2572 50.884 19.1052 53.012 21.6252 53.012ZM34.5002 47.188V55H32.0082V41.588H34.5002V43.268C35.3122 42.036 36.6562 41.252 38.3642 41.252C40.4642 41.252 42.0322 42.26 42.8442 43.968C43.5722 42.4 45.0562 41.252 47.2122 41.252C50.3202 41.252 52.3362 43.352 52.3362 46.796V55H49.8442V47.188C49.8442 44.976 48.6402 43.576 46.6522 43.576C44.6362 43.576 43.4042 44.976 43.4042 47.188V55H40.9402V47.188C40.9402 44.976 39.7082 43.576 37.7202 43.576C35.7042 43.576 34.5002 44.976 34.5002 47.188ZM63.8063 41.252C67.4463 41.252 70.3303 44.248 70.3303 48.308C70.3303 52.284 67.5583 55.336 63.8063 55.336C61.7903 55.336 60.1663 54.468 59.1303 53.04V55H56.6383V35.736H59.1303V43.632C60.1663 42.176 61.7903 41.252 63.8063 41.252ZM63.4983 43.576C60.9503 43.576 59.1303 45.704 59.1303 48.308C59.1303 50.94 60.9503 53.012 63.4983 53.012C66.0183 53.012 67.8383 50.94 67.8383 48.308C67.8383 45.704 66.0183 43.576 63.4983 43.576ZM76.3777 41.588V55H73.8857V41.588H76.3777ZM75.1177 39.264C74.2777 39.264 73.5777 38.564 73.5777 37.724C73.5777 36.884 74.2777 36.184 75.1177 36.184C75.9577 36.184 76.6577 36.884 76.6577 37.724C76.6577 38.564 75.9577 39.264 75.1177 39.264ZM83.3711 47.188V55H80.8791V41.588H83.3711V43.24C84.2111 41.98 85.6391 41.252 87.4031 41.252C90.5671 41.252 92.6111 43.408 92.6111 46.796V55H90.1191V47.188C90.1191 44.976 88.8311 43.576 86.7311 43.576C84.6311 43.576 83.3711 44.976 83.3711 47.188ZM102.944 55.336C98.856 55.336 95.916 52.172 95.916 48.28C95.916 44.388 98.744 41.252 102.552 41.252C106.304 41.252 109.16 44.248 109.16 48.028C109.16 48.364 109.132 48.728 109.076 48.924H98.436C98.716 51.332 100.48 53.124 103.028 53.124C104.54 53.124 105.884 52.536 106.78 51.64L108.096 53.348C107.004 54.524 105.1 55.336 102.944 55.336ZM102.58 43.38C100.396 43.38 98.856 45.032 98.492 47.272H106.612C106.22 44.78 104.68 43.38 102.58 43.38ZM118.328 53.012C120.848 53.012 122.668 50.884 122.668 48.28C122.668 45.648 120.848 43.576 118.328 43.576C115.808 43.576 113.96 45.648 113.96 48.28C113.96 50.884 115.808 53.012 118.328 53.012ZM122.668 35.736H125.16V55H122.668V52.9C121.632 54.384 120.008 55.336 117.964 55.336C114.324 55.336 111.468 52.34 111.468 48.28C111.468 44.304 114.212 41.252 117.964 41.252C120.008 41.252 121.632 42.148 122.668 43.604V35.736ZM154.778 41.588H157.438L153.126 55H150.074L146.798 44.752L143.55 55H140.722L136.41 41.588H139.07L142.178 52.228L145.538 41.588H148.254L151.642 52.256L154.778 41.588ZM162.859 41.588V55H160.367V41.588H162.859ZM161.599 39.264C160.759 39.264 160.059 38.564 160.059 37.724C160.059 36.884 160.759 36.184 161.599 36.184C162.439 36.184 163.139 36.884 163.139 37.724C163.139 38.564 162.439 39.264 161.599 39.264ZM165.848 43.8V41.588H168.088V38.256H170.552V41.588H174.36V43.8H170.58V50.884C170.58 52.312 171.224 53.012 172.428 53.012C173.1 53.012 173.772 52.76 174.164 52.312L175.312 54.188C174.696 54.804 173.576 55.336 172.092 55.336C169.572 55.336 168.06 53.852 168.06 50.968V43.8H165.848ZM180.51 47.188V55H178.018V35.736H180.51V43.24C181.35 41.98 182.778 41.252 184.542 41.252C187.706 41.252 189.75 43.408 189.75 46.796V55H187.258V47.188C187.258 44.976 185.97 43.576 183.87 43.576C181.77 43.576 180.51 44.976 180.51 47.188ZM208.197 55.336C204.361 55.336 201.365 52.172 201.365 48.28C201.365 44.388 204.361 41.252 208.197 41.252C212.061 41.252 215.057 44.388 215.057 48.28C215.057 52.172 212.061 55.336 208.197 55.336ZM208.225 53.012C210.745 53.012 212.565 50.884 212.565 48.28C212.565 45.648 210.745 43.576 208.225 43.576C205.705 43.576 203.857 45.648 203.857 48.28C203.857 50.884 205.705 53.012 208.225 53.012ZM217.096 43.8V41.588H219.336V38.256H221.8V41.588H225.608V43.8H221.828V50.884C221.828 52.312 222.472 53.012 223.676 53.012C224.348 53.012 225.02 52.76 225.412 52.312L226.56 54.188C225.944 54.804 224.824 55.336 223.34 55.336C220.82 55.336 219.308 53.852 219.308 50.968V43.8H217.096ZM231.758 47.188V55H229.266V35.736H231.758V43.24C232.598 41.98 234.026 41.252 235.79 41.252C238.954 41.252 240.998 43.408 240.998 46.796V55H238.506V47.188C238.506 44.976 237.218 43.576 235.118 43.576C233.018 43.576 231.758 44.976 231.758 47.188ZM251.331 55.336C247.243 55.336 244.303 52.172 244.303 48.28C244.303 44.388 247.131 41.252 250.939 41.252C254.691 41.252 257.547 44.248 257.547 48.028C257.547 48.364 257.519 48.728 257.463 48.924H246.823C247.103 51.332 248.867 53.124 251.415 53.124C252.927 53.124 254.271 52.536 255.167 51.64L256.483 53.348C255.391 54.524 253.487 55.336 251.331 55.336ZM250.967 43.38C248.783 43.38 247.243 45.032 246.879 47.272H254.999C254.607 44.78 253.067 43.38 250.967 43.38ZM263.327 47.272V55H260.835V41.588H263.327V43.268C264.055 42.036 265.203 41.252 266.687 41.252C267.527 41.252 268.255 41.448 268.731 41.84L267.695 44.164C267.247 43.856 266.603 43.632 265.959 43.632C264.335 43.632 263.327 45.032 263.327 47.272ZM285.6 55.336C281.764 55.336 278.768 52.172 278.768 48.28C278.768 44.388 281.764 41.252 285.6 41.252C289.464 41.252 292.46 44.388 292.46 48.28C292.46 52.172 289.464 55.336 285.6 55.336ZM285.628 53.012C288.148 53.012 289.968 50.884 289.968 48.28C289.968 45.648 288.148 43.576 285.628 43.576C283.108 43.576 281.26 45.648 281.26 48.28C281.26 50.884 283.108 53.012 285.628 53.012ZM304.383 36.688L303.123 38.508C302.703 38.06 301.975 37.724 301.219 37.724C299.931 37.724 299.203 38.564 299.203 40.076V41.588H302.759V43.8H299.203V55H296.739V43.8H294.611V41.588H296.739V40.048C296.739 37.08 298.419 35.4 300.995 35.4C302.563 35.4 303.627 35.876 304.383 36.688ZM314.138 36.688L312.878 38.508C312.458 38.06 311.73 37.724 310.974 37.724C309.686 37.724 308.958 38.564 308.958 40.076V41.588H312.514V43.8H308.958V55H306.494V43.8H304.366V41.588H306.494V40.048C306.494 37.08 308.174 35.4 310.75 35.4C312.318 35.4 313.382 35.876 314.138 36.688ZM320.612 55.336C316.524 55.336 313.584 52.172 313.584 48.28C313.584 44.388 316.412 41.252 320.22 41.252C323.972 41.252 326.828 44.248 326.828 48.028C326.828 48.364 326.8 48.728 326.744 48.924H316.104C316.384 51.332 318.148 53.124 320.696 53.124C322.208 53.124 323.552 52.536 324.448 51.64L325.764 53.348C324.672 54.524 322.768 55.336 320.612 55.336ZM320.248 43.38C318.064 43.38 316.524 45.032 316.16 47.272H324.28C323.888 44.78 322.348 43.38 320.248 43.38ZM332.608 47.272V55H330.116V41.588H332.608V43.268C333.336 42.036 334.484 41.252 335.968 41.252C336.808 41.252 337.536 41.448 338.012 41.84L336.976 44.164C336.528 43.856 335.884 43.632 335.24 43.632C333.616 43.632 332.608 45.032 332.608 47.272ZM341.768 44.976C341.768 47.86 349.384 46.376 349.384 51.332C349.384 53.6 347.508 55.336 344.148 55.336C341.684 55.336 339.836 54.468 338.772 53.152L340.228 51.528C341.152 52.648 342.552 53.32 344.316 53.32C345.996 53.32 346.92 52.536 346.92 51.388C346.92 48.336 339.332 49.736 339.332 44.976C339.332 43.016 341.04 41.252 344.176 41.252C346.472 41.252 348.236 42.008 349.16 43.324L347.676 44.808C346.78 43.688 345.688 43.268 344.232 43.268C342.72 43.268 341.768 43.996 341.768 44.976ZM371.247 55V52.9C370.211 54.384 368.587 55.336 366.543 55.336C362.903 55.336 360.047 52.34 360.047 48.28C360.047 44.304 362.791 41.252 366.543 41.252C368.587 41.252 370.211 42.148 371.247 43.604V41.588H373.739V55H371.247ZM366.907 53.012C369.427 53.012 371.247 50.884 371.247 48.28C371.247 45.648 369.427 43.576 366.907 43.576C364.387 43.576 362.539 45.648 362.539 48.28C362.539 50.884 364.387 53.012 366.907 53.012ZM380.767 47.188V55H378.275V41.588H380.767V43.24C381.607 41.98 383.035 41.252 384.799 41.252C387.963 41.252 390.007 43.408 390.007 46.796V55H387.515V47.188C387.515 44.976 386.227 43.576 384.127 43.576C382.027 43.576 380.767 44.976 380.767 47.188ZM400.172 53.012C402.692 53.012 404.512 50.884 404.512 48.28C404.512 45.648 402.692 43.576 400.172 43.576C397.652 43.576 395.804 45.648 395.804 48.28C395.804 50.884 397.652 53.012 400.172 53.012ZM404.512 35.736H407.004V55H404.512V52.9C403.476 54.384 401.852 55.336 399.808 55.336C396.168 55.336 393.312 52.34 393.312 48.28C393.312 44.304 396.056 41.252 399.808 41.252C401.852 41.252 403.476 42.148 404.512 43.604V35.736ZM422.342 47.188V55H419.85V41.588H422.342V43.268C423.154 42.036 424.498 41.252 426.206 41.252C428.306 41.252 429.874 42.26 430.686 43.968C431.414 42.4 432.898 41.252 435.054 41.252C438.162 41.252 440.178 43.352 440.178 46.796V55H437.686V47.188C437.686 44.976 436.482 43.576 434.494 43.576C432.478 43.576 431.246 44.976 431.246 47.188V55H428.782V47.188C428.782 44.976 427.55 43.576 425.562 43.576C423.546 43.576 422.342 44.976 422.342 47.188ZM454.7 55V52.9C453.664 54.384 452.04 55.336 449.996 55.336C446.356 55.336 443.5 52.34 443.5 48.28C443.5 44.304 446.244 41.252 449.996 41.252C452.04 41.252 453.664 42.148 454.7 43.604V41.588H457.192V55H454.7ZM450.36 53.012C452.88 53.012 454.7 50.884 454.7 48.28C454.7 45.648 452.88 43.576 450.36 43.576C447.84 43.576 445.992 45.648 445.992 48.28C445.992 50.884 447.84 53.012 450.36 53.012ZM462.455 41.588L466.935 52.06L470.743 41.588H473.263L467.467 57.184C466.599 59.62 465.199 60.824 463.127 60.824C461.951 60.824 460.747 60.348 459.907 59.592L461.083 57.66C461.671 58.22 462.427 58.5 463.183 58.5C464.163 58.5 464.807 57.94 465.395 56.316L465.815 55.168L459.739 41.588H462.455ZM491.446 41.252C495.086 41.252 497.97 44.248 497.97 48.308C497.97 52.284 495.198 55.336 491.446 55.336C489.43 55.336 487.806 54.468 486.77 53.04V55H484.278V35.736H486.77V43.632C487.806 42.176 489.43 41.252 491.446 41.252ZM491.138 43.576C488.59 43.576 486.77 45.704 486.77 48.308C486.77 50.94 488.59 53.012 491.138 53.012C493.658 53.012 495.478 50.94 495.478 48.308C495.478 45.704 493.658 43.576 491.138 43.576ZM507.573 55.336C503.485 55.336 500.545 52.172 500.545 48.28C500.545 44.388 503.373 41.252 507.181 41.252C510.933 41.252 513.789 44.248 513.789 48.028C513.789 48.364 513.761 48.728 513.705 48.924H503.065C503.345 51.332 505.109 53.124 507.657 53.124C509.169 53.124 510.513 52.536 511.409 51.64L512.725 53.348C511.633 54.524 509.729 55.336 507.573 55.336ZM507.209 43.38C505.025 43.38 503.485 45.032 503.121 47.272H511.241C510.849 44.78 509.309 43.38 507.209 43.38ZM527.88 47.272V55H525.388V41.588H527.88V43.268C528.608 42.036 529.756 41.252 531.24 41.252C532.08 41.252 532.808 41.448 533.284 41.84L532.248 44.164C531.8 43.856 531.156 43.632 530.512 43.632C528.888 43.632 527.88 45.032 527.88 47.272ZM540.917 55.336C536.829 55.336 533.889 52.172 533.889 48.28C533.889 44.388 536.717 41.252 540.525 41.252C544.277 41.252 547.133 44.248 547.133 48.028C547.133 48.364 547.105 48.728 547.049 48.924H536.409C536.689 51.332 538.453 53.124 541.001 53.124C542.513 53.124 543.857 52.536 544.753 51.64L546.069 53.348C544.977 54.524 543.073 55.336 540.917 55.336ZM540.553 43.38C538.369 43.38 536.829 45.032 536.465 47.272H544.585C544.193 44.78 542.653 43.38 540.553 43.38ZM551.825 44.976C551.825 47.86 559.441 46.376 559.441 51.332C559.441 53.6 557.565 55.336 554.205 55.336C551.741 55.336 549.893 54.468 548.829 53.152L550.285 51.528C551.209 52.648 552.609 53.32 554.373 53.32C556.053 53.32 556.977 52.536 556.977 51.388C556.977 48.336 549.389 49.736 549.389 44.976C549.389 43.016 551.097 41.252 554.233 41.252C556.529 41.252 558.293 42.008 559.217 43.324L557.733 44.808C556.837 43.688 555.745 43.268 554.289 43.268C552.777 43.268 551.825 43.996 551.825 44.976ZM561.262 43.8V41.588H563.502V38.256H565.966V41.588H569.774V43.8H565.994V50.884C565.994 52.312 566.638 53.012 567.842 53.012C568.514 53.012 569.186 52.76 569.578 52.312L570.726 54.188C570.11 54.804 568.99 55.336 567.506 55.336C564.986 55.336 563.474 53.852 563.474 50.968V43.8H561.262ZM575.924 47.272V55H573.432V41.588H575.924V43.268C576.652 42.036 577.8 41.252 579.284 41.252C580.124 41.252 580.852 41.448 581.328 41.84L580.292 44.164C579.844 43.856 579.2 43.632 578.556 43.632C576.932 43.632 575.924 45.032 575.924 47.272ZM586.527 41.588V55H584.035V41.588H586.527ZM585.267 39.264C584.427 39.264 583.727 38.564 583.727 37.724C583.727 36.884 584.427 36.184 585.267 36.184C586.107 36.184 586.807 36.884 586.807 37.724C586.807 38.564 586.107 39.264 585.267 39.264ZM600.576 44.892C599.68 44.052 598.504 43.576 597.048 43.576C594.388 43.576 592.54 45.648 592.54 48.28C592.54 50.884 594.388 53.012 597.02 53.012C598.476 53.012 599.736 52.536 600.632 51.64L601.92 53.46C600.856 54.608 598.98 55.336 596.936 55.336C593.016 55.336 590.048 52.172 590.048 48.28C590.048 44.388 593.044 41.252 596.964 41.252C599.12 41.252 600.884 41.98 602.004 43.128L600.576 44.892ZM603.236 43.8V41.588H605.476V38.256H607.94V41.588H611.748V43.8H607.968V50.884C607.968 52.312 608.612 53.012 609.816 53.012C610.488 53.012 611.16 52.76 611.552 52.312L612.7 54.188C612.084 54.804 610.964 55.336 609.48 55.336C606.96 55.336 605.448 53.852 605.448 50.968V43.8H603.236ZM620.715 55.336C616.627 55.336 613.687 52.172 613.687 48.28C613.687 44.388 616.515 41.252 620.323 41.252C624.075 41.252 626.931 44.248 626.931 48.028C626.931 48.364 626.903 48.728 626.847 48.924H616.207C616.487 51.332 618.251 53.124 620.799 53.124C622.311 53.124 623.655 52.536 624.551 51.64L625.867 53.348C624.775 54.524 622.871 55.336 620.715 55.336ZM620.351 43.38C618.167 43.38 616.627 45.032 616.263 47.272H624.383C623.991 44.78 622.451 43.38 620.351 43.38ZM636.099 53.012C638.619 53.012 640.439 50.884 640.439 48.28C640.439 45.648 638.619 43.576 636.099 43.576C633.579 43.576 631.731 45.648 631.731 48.28C631.731 50.884 633.579 53.012 636.099 53.012ZM640.439 35.736H642.931V55H640.439V52.9C639.403 54.384 637.779 55.336 635.735 55.336C632.095 55.336 629.239 52.34 629.239 48.28C629.239 44.304 631.983 41.252 635.735 41.252C637.779 41.252 639.403 42.148 640.439 43.604V35.736ZM664.149 36.688L662.889 38.508C662.469 38.06 661.741 37.724 660.985 37.724C659.697 37.724 658.969 38.564 658.969 40.076V41.588H662.525V43.8H658.969V55H656.505V43.8H654.377V41.588H656.505V40.048C656.505 37.08 658.185 35.4 660.761 35.4C662.329 35.4 663.393 35.876 664.149 36.688ZM670.427 55.336C666.591 55.336 663.595 52.172 663.595 48.28C663.595 44.388 666.591 41.252 670.427 41.252C674.291 41.252 677.287 44.388 677.287 48.28C677.287 52.172 674.291 55.336 670.427 55.336ZM670.455 53.012C672.975 53.012 674.795 50.884 674.795 48.28C674.795 45.648 672.975 43.576 670.455 43.576C667.935 43.576 666.087 45.648 666.087 48.28C666.087 50.884 667.935 53.012 670.455 53.012ZM683.33 47.272V55H680.838V41.588H683.33V43.268C684.058 42.036 685.206 41.252 686.69 41.252C687.53 41.252 688.258 41.448 688.734 41.84L687.698 44.164C687.25 43.856 686.606 43.632 685.962 43.632C684.338 43.632 683.33 45.032 683.33 47.272ZM702.02 41.588V49.008C702.02 51.36 703.392 52.928 705.464 52.928C707.592 52.928 708.964 51.36 708.964 49.008V41.588H711.456V49.204C711.456 52.844 709.076 55.252 705.464 55.252C701.88 55.252 699.528 52.844 699.528 49.204V41.588H702.02ZM717.337 44.976C717.337 47.86 724.953 46.376 724.953 51.332C724.953 53.6 723.077 55.336 719.717 55.336C717.253 55.336 715.405 54.468 714.341 53.152L715.797 51.528C716.721 52.648 718.121 53.32 719.885 53.32C721.565 53.32 722.489 52.536 722.489 51.388C722.489 48.336 714.901 49.736 714.901 44.976C714.901 43.016 716.609 41.252 719.745 41.252C722.041 41.252 723.805 42.008 724.729 43.324L723.245 44.808C722.349 43.688 721.257 43.268 719.801 43.268C718.289 43.268 717.337 43.996 717.337 44.976ZM734.334 55.336C730.246 55.336 727.306 52.172 727.306 48.28C727.306 44.388 730.134 41.252 733.942 41.252C737.694 41.252 740.55 44.248 740.55 48.028C740.55 48.364 740.522 48.728 740.466 48.924H729.826C730.106 51.332 731.87 53.124 734.418 53.124C735.93 53.124 737.274 52.536 738.17 51.64L739.486 53.348C738.394 54.524 736.49 55.336 734.334 55.336ZM733.97 43.38C731.786 43.38 730.246 45.032 729.882 47.272H738.002C737.61 44.78 736.07 43.38 733.97 43.38ZM758 55.336C754.164 55.336 751.168 52.172 751.168 48.28C751.168 44.388 754.164 41.252 758 41.252C761.864 41.252 764.86 44.388 764.86 48.28C764.86 52.172 761.864 55.336 758 55.336ZM758.028 53.012C760.548 53.012 762.368 50.884 762.368 48.28C762.368 45.648 760.548 43.576 758.028 43.576C755.508 43.576 753.66 45.648 753.66 48.28C753.66 50.884 755.508 53.012 758.028 53.012ZM770.903 47.188V55H768.411V41.588H770.903V43.24C771.743 41.98 773.171 41.252 774.935 41.252C778.099 41.252 780.143 43.408 780.143 46.796V55H777.651V47.188C777.651 44.976 776.363 43.576 774.263 43.576C772.163 43.576 770.903 44.976 770.903 47.188ZM802.287 44.892C801.391 44.052 800.215 43.576 798.759 43.576C796.099 43.576 794.251 45.648 794.251 48.28C794.251 50.884 796.099 53.012 798.731 53.012C800.187 53.012 801.447 52.536 802.343 51.64L803.631 53.46C802.567 54.608 800.691 55.336 798.647 55.336C794.727 55.336 791.759 52.172 791.759 48.28C791.759 44.388 794.755 41.252 798.675 41.252C800.831 41.252 802.595 41.98 803.715 43.128L802.287 44.892ZM812.124 55.336C808.036 55.336 805.096 52.172 805.096 48.28C805.096 44.388 807.924 41.252 811.732 41.252C815.484 41.252 818.34 44.248 818.34 48.028C818.34 48.364 818.312 48.728 818.256 48.924H807.616C807.896 51.332 809.66 53.124 812.208 53.124C813.72 53.124 815.064 52.536 815.96 51.64L817.276 53.348C816.184 54.524 814.28 55.336 812.124 55.336ZM811.76 43.38C809.576 43.38 808.036 45.032 807.672 47.272H815.792C815.4 44.78 813.86 43.38 811.76 43.38ZM824.12 47.272V55H821.628V41.588H824.12V43.268C824.848 42.036 825.996 41.252 827.48 41.252C828.32 41.252 829.048 41.448 829.524 41.84L828.488 44.164C828.04 43.856 827.396 43.632 826.752 43.632C825.128 43.632 824.12 45.032 824.12 47.272ZM830.719 43.8V41.588H832.959V38.256H835.423V41.588H839.231V43.8H835.451V50.884C835.451 52.312 836.095 53.012 837.299 53.012C837.971 53.012 838.643 52.76 839.035 52.312L840.183 54.188C839.567 54.804 838.447 55.336 836.963 55.336C834.443 55.336 832.931 53.852 832.931 50.968V43.8H830.719ZM852.37 55V52.9C851.334 54.384 849.71 55.336 847.666 55.336C844.026 55.336 841.17 52.34 841.17 48.28C841.17 44.304 843.914 41.252 847.666 41.252C849.71 41.252 851.334 42.148 852.37 43.604V41.588H854.862V55H852.37ZM848.03 53.012C850.55 53.012 852.37 50.884 852.37 48.28C852.37 45.648 850.55 43.576 848.03 43.576C845.51 43.576 843.662 45.648 843.662 48.28C843.662 50.884 845.51 53.012 848.03 53.012ZM861.89 41.588V55H859.398V41.588H861.89ZM860.63 39.264C859.79 39.264 859.09 38.564 859.09 37.724C859.09 36.884 859.79 36.184 860.63 36.184C861.47 36.184 862.17 36.884 862.17 37.724C862.17 38.564 861.47 39.264 860.63 39.264ZM868.883 47.188V55H866.391V41.588H868.883V43.24C869.723 41.98 871.151 41.252 872.915 41.252C876.079 41.252 878.123 43.408 878.123 46.796V55H875.631V47.188C875.631 44.976 874.343 43.576 872.243 43.576C870.143 43.576 868.883 44.976 868.883 47.188ZM2.408 73.588H4.9V75.632C5.936 74.176 7.56 73.252 9.576 73.252C13.216 73.252 16.1 76.248 16.1 80.308C16.1 84.284 13.328 87.336 9.576 87.336C7.56 87.336 5.936 86.468 4.9 85.04V92.488H2.408V73.588ZM9.268 75.576C6.72 75.576 4.9 77.704 4.9 80.308C4.9 82.94 6.72 85.012 9.268 85.012C11.788 85.012 13.608 82.94 13.608 80.308C13.608 77.704 11.788 75.576 9.268 75.576ZM22.1473 79.272V87H19.6553V73.588H22.1473V75.268C22.8753 74.036 24.0233 73.252 25.5073 73.252C26.3473 73.252 27.0753 73.448 27.5513 73.84L26.5153 76.164C26.0673 75.856 25.4233 75.632 24.7793 75.632C23.1553 75.632 22.1473 77.032 22.1473 79.272ZM34.9891 87.336C31.1531 87.336 28.1571 84.172 28.1571 80.28C28.1571 76.388 31.1531 73.252 34.9891 73.252C38.8531 73.252 41.8491 76.388 41.8491 80.28C41.8491 84.172 38.8531 87.336 34.9891 87.336ZM35.0171 85.012C37.5371 85.012 39.3571 82.884 39.3571 80.28C39.3571 77.648 37.5371 75.576 35.0171 75.576C32.4971 75.576 30.6491 77.648 30.6491 80.28C30.6491 82.884 32.4971 85.012 35.0171 85.012ZM51.28 85.012C53.8 85.012 55.62 82.884 55.62 80.28C55.62 77.648 53.8 75.576 51.28 75.576C48.76 75.576 46.912 77.648 46.912 80.28C46.912 82.884 48.76 85.012 51.28 85.012ZM55.62 67.736H58.112V87H55.62V84.9C54.584 86.384 52.96 87.336 50.916 87.336C47.276 87.336 44.42 84.34 44.42 80.28C44.42 76.304 47.164 73.252 50.916 73.252C52.96 73.252 54.584 74.148 55.62 75.604V67.736ZM64.9154 73.588V81.008C64.9154 83.36 66.2874 84.928 68.3594 84.928C70.4874 84.928 71.8594 83.36 71.8594 81.008V73.588H74.3514V81.204C74.3514 84.844 71.9714 87.252 68.3594 87.252C64.7754 87.252 62.4234 84.844 62.4234 81.204V73.588H64.9154ZM88.2122 76.892C87.3162 76.052 86.1402 75.576 84.6842 75.576C82.0242 75.576 80.1762 77.648 80.1762 80.28C80.1762 82.884 82.0242 85.012 84.6562 85.012C86.1122 85.012 87.3722 84.536 88.2682 83.64L89.5562 85.46C88.4922 86.608 86.6162 87.336 84.5722 87.336C80.6522 87.336 77.6842 84.172 77.6842 80.28C77.6842 76.388 80.6802 73.252 84.6002 73.252C86.7562 73.252 88.5202 73.98 89.6402 75.128L88.2122 76.892ZM90.8722 75.8V73.588H93.1122V70.256H95.5762V73.588H99.3843V75.8H95.6042V82.884C95.6042 84.312 96.2482 85.012 97.4523 85.012C98.1242 85.012 98.7963 84.76 99.1883 84.312L100.336 86.188C99.7203 86.804 98.6003 87.336 97.1163 87.336C94.5962 87.336 93.0842 85.852 93.0842 82.968V75.8H90.8722ZM104.61 76.976C104.61 79.86 112.226 78.376 112.226 83.332C112.226 85.6 110.35 87.336 106.99 87.336C104.526 87.336 102.678 86.468 101.614 85.152L103.07 83.528C103.994 84.648 105.394 85.32 107.158 85.32C108.838 85.32 109.762 84.536 109.762 83.388C109.762 80.336 102.174 81.736 102.174 76.976C102.174 75.016 103.882 73.252 107.018 73.252C109.314 73.252 111.078 74.008 112.002 75.324L110.518 76.808C109.622 75.688 108.53 75.268 107.074 75.268C105.562 75.268 104.61 75.996 104.61 76.976ZM115.839 87.252C114.915 87.252 114.131 86.496 114.131 85.544C114.131 84.592 114.915 83.78 115.839 83.78C116.819 83.78 117.603 84.592 117.603 85.544C117.603 86.496 116.819 87.252 115.839 87.252ZM144.634 71.432H138.922V87H136.402V71.432H130.718V69.052H144.634V71.432ZM149.683 79.188V87H147.191V67.736H149.683V75.24C150.523 73.98 151.951 73.252 153.715 73.252C156.879 73.252 158.923 75.408 158.923 78.796V87H156.431V79.188C156.431 76.976 155.143 75.576 153.043 75.576C150.943 75.576 149.683 76.976 149.683 79.188ZM165.7 73.588V87H163.208V73.588H165.7ZM164.44 71.264C163.6 71.264 162.9 70.564 162.9 69.724C162.9 68.884 163.6 68.184 164.44 68.184C165.28 68.184 165.98 68.884 165.98 69.724C165.98 70.564 165.28 71.264 164.44 71.264ZM171.769 76.976C171.769 79.86 179.385 78.376 179.385 83.332C179.385 85.6 177.509 87.336 174.149 87.336C171.685 87.336 169.837 86.468 168.773 85.152L170.229 83.528C171.153 84.648 172.553 85.32 174.317 85.32C175.997 85.32 176.921 84.536 176.921 83.388C176.921 80.336 169.333 81.736 169.333 76.976C169.333 75.016 171.041 73.252 174.177 73.252C176.473 73.252 178.237 74.008 179.161 75.324L177.677 76.808C176.781 75.688 175.689 75.268 174.233 75.268C172.721 75.268 171.769 75.996 171.769 76.976ZM200.724 87.336C196.636 87.336 193.696 84.172 193.696 80.28C193.696 76.388 196.524 73.252 200.332 73.252C204.084 73.252 206.94 76.248 206.94 80.028C206.94 80.364 206.912 80.728 206.856 80.924H196.216C196.496 83.332 198.26 85.124 200.808 85.124C202.32 85.124 203.664 84.536 204.56 83.64L205.876 85.348C204.784 86.524 202.88 87.336 200.724 87.336ZM200.36 75.38C198.176 75.38 196.636 77.032 196.272 79.272H204.392C204 76.78 202.46 75.38 200.36 75.38ZM218.696 73.588H221.244L216.176 87H212.956L207.888 73.588H210.632L214.636 84.76L218.696 73.588ZM229.476 87.336C225.388 87.336 222.448 84.172 222.448 80.28C222.448 76.388 225.276 73.252 229.084 73.252C232.836 73.252 235.692 76.248 235.692 80.028C235.692 80.364 235.664 80.728 235.608 80.924H224.968C225.248 83.332 227.012 85.124 229.56 85.124C231.072 85.124 232.416 84.536 233.312 83.64L234.628 85.348C233.536 86.524 231.632 87.336 229.476 87.336ZM229.112 75.38C226.928 75.38 225.388 77.032 225.024 79.272H233.144C232.752 76.78 231.212 75.38 229.112 75.38ZM241.472 79.188V87H238.98V73.588H241.472V75.24C242.312 73.98 243.74 73.252 245.504 73.252C248.668 73.252 250.712 75.408 250.712 78.796V87H248.22V79.188C248.22 76.976 246.932 75.576 244.832 75.576C242.732 75.576 241.472 76.976 241.472 79.188ZM253.485 75.8V73.588H255.725V70.256H258.189V73.588H261.997V75.8H258.217V82.884C258.217 84.312 258.861 85.012 260.065 85.012C260.737 85.012 261.409 84.76 261.801 84.312L262.949 86.188C262.333 86.804 261.213 87.336 259.729 87.336C257.209 87.336 255.697 85.852 255.697 82.968V75.8H253.485ZM280.104 79.188V87H277.612V73.588H280.104V75.268C280.916 74.036 282.26 73.252 283.968 73.252C286.068 73.252 287.636 74.26 288.448 75.968C289.176 74.4 290.66 73.252 292.816 73.252C295.924 73.252 297.94 75.352 297.94 78.796V87H295.448V79.188C295.448 76.976 294.244 75.576 292.256 75.576C290.24 75.576 289.008 76.976 289.008 79.188V87H286.544V79.188C286.544 76.976 285.312 75.576 283.324 75.576C281.308 75.576 280.104 76.976 280.104 79.188ZM312.463 87V84.9C311.427 86.384 309.803 87.336 307.759 87.336C304.119 87.336 301.263 84.34 301.263 80.28C301.263 76.304 304.007 73.252 307.759 73.252C309.803 73.252 311.427 74.148 312.463 75.604V73.588H314.955V87H312.463ZM308.123 85.012C310.643 85.012 312.463 82.884 312.463 80.28C312.463 77.648 310.643 75.576 308.123 75.576C305.603 75.576 303.755 77.648 303.755 80.28C303.755 82.884 305.603 85.012 308.123 85.012ZM320.218 73.588L324.698 84.06L328.506 73.588H331.026L325.23 89.184C324.362 91.62 322.962 92.824 320.89 92.824C319.714 92.824 318.51 92.348 317.67 91.592L318.846 89.66C319.434 90.22 320.19 90.5 320.946 90.5C321.926 90.5 322.57 89.94 323.158 88.316L323.578 87.168L317.502 73.588H320.218ZM352.855 73.252C356.495 73.252 359.379 76.248 359.379 80.308C359.379 84.284 356.607 87.336 352.855 87.336C350.839 87.336 349.215 86.468 348.179 85.04V87H345.687V67.736H348.179V75.632C349.215 74.176 350.839 73.252 352.855 73.252ZM352.547 75.576C349.999 75.576 348.179 77.704 348.179 80.308C348.179 82.94 349.999 85.012 352.547 85.012C355.067 85.012 356.887 82.94 356.887 80.308C356.887 77.704 355.067 75.576 352.547 75.576ZM368.983 87.336C364.895 87.336 361.955 84.172 361.955 80.28C361.955 76.388 364.783 73.252 368.591 73.252C372.343 73.252 375.199 76.248 375.199 80.028C375.199 80.364 375.171 80.728 375.115 80.924H364.475C364.755 83.332 366.519 85.124 369.067 85.124C370.579 85.124 371.923 84.536 372.819 83.64L374.135 85.348C373.043 86.524 371.139 87.336 368.983 87.336ZM368.619 75.38C366.435 75.38 364.895 77.032 364.531 79.272H372.651C372.259 76.78 370.719 75.38 368.619 75.38ZM399.992 76.892C399.096 76.052 397.92 75.576 396.464 75.576C393.804 75.576 391.956 77.648 391.956 80.28C391.956 82.884 393.804 85.012 396.436 85.012C397.892 85.012 399.152 84.536 400.048 83.64L401.336 85.46C400.272 86.608 398.396 87.336 396.352 87.336C392.432 87.336 389.464 84.172 389.464 80.28C389.464 76.388 392.46 73.252 396.38 73.252C398.536 73.252 400.3 73.98 401.42 75.128L399.992 76.892ZM406.656 79.188V87H404.164V67.736H406.656V75.24C407.496 73.98 408.924 73.252 410.688 73.252C413.852 73.252 415.896 75.408 415.896 78.796V87H413.404V79.188C413.404 76.976 412.116 75.576 410.016 75.576C407.916 75.576 406.656 76.976 406.656 79.188ZM430.401 87V84.9C429.365 86.384 427.741 87.336 425.697 87.336C422.057 87.336 419.201 84.34 419.201 80.28C419.201 76.304 421.945 73.252 425.697 73.252C427.741 73.252 429.365 74.148 430.401 75.604V73.588H432.893V87H430.401ZM426.061 85.012C428.581 85.012 430.401 82.884 430.401 80.28C430.401 77.648 428.581 75.576 426.061 75.576C423.541 75.576 421.693 77.648 421.693 80.28C421.693 82.884 423.541 85.012 426.061 85.012ZM439.921 79.188V87H437.429V73.588H439.921V75.24C440.761 73.98 442.189 73.252 443.953 73.252C447.117 73.252 449.161 75.408 449.161 78.796V87H446.669V79.188C446.669 76.976 445.381 75.576 443.281 75.576C441.181 75.576 439.921 76.976 439.921 79.188ZM454.79 89.156C455.686 89.828 457.17 90.556 459.102 90.556C461.93 90.556 463.554 89.044 463.554 86.188V84.592C462.518 86.048 460.894 86.972 458.85 86.972C455.266 86.972 452.466 84.06 452.466 80.112C452.466 76.22 455.266 73.308 458.85 73.308C460.894 73.308 462.518 74.176 463.554 75.576V73.588H466.018V86.048C466.018 91.004 462.882 92.824 459.242 92.824C456.778 92.824 454.818 92.208 453.53 91.116L454.79 89.156ZM459.27 84.648C461.762 84.648 463.554 82.604 463.554 80.084C463.554 77.592 461.762 75.576 459.27 75.576C456.778 75.576 454.958 77.592 454.958 80.084C454.958 82.604 456.778 84.648 459.27 84.648ZM476.604 87.336C472.516 87.336 469.576 84.172 469.576 80.28C469.576 76.388 472.404 73.252 476.212 73.252C479.964 73.252 482.82 76.248 482.82 80.028C482.82 80.364 482.792 80.728 482.736 80.924H472.096C472.376 83.332 474.14 85.124 476.688 85.124C478.2 85.124 479.544 84.536 480.44 83.64L481.756 85.348C480.664 86.524 478.76 87.336 476.604 87.336ZM476.24 75.38C474.056 75.38 472.516 77.032 472.152 79.272H480.272C479.88 76.78 478.34 75.38 476.24 75.38ZM491.988 85.012C494.508 85.012 496.328 82.884 496.328 80.28C496.328 77.648 494.508 75.576 491.988 75.576C489.468 75.576 487.62 77.648 487.62 80.28C487.62 82.884 489.468 85.012 491.988 85.012ZM496.328 67.736H498.82V87H496.328V84.9C495.292 86.384 493.668 87.336 491.624 87.336C487.984 87.336 485.128 84.34 485.128 80.28C485.128 76.304 487.872 73.252 491.624 73.252C493.668 73.252 495.292 74.148 496.328 75.604V67.736ZM521.165 87.336C517.329 87.336 514.333 84.172 514.333 80.28C514.333 76.388 517.329 73.252 521.165 73.252C525.029 73.252 528.025 76.388 528.025 80.28C528.025 84.172 525.029 87.336 521.165 87.336ZM521.193 85.012C523.713 85.012 525.533 82.884 525.533 80.28C525.533 77.648 523.713 75.576 521.193 75.576C518.673 75.576 516.825 77.648 516.825 80.28C516.825 82.884 518.673 85.012 521.193 85.012ZM534.068 79.272V87H531.576V73.588H534.068V75.268C534.796 74.036 535.944 73.252 537.428 73.252C538.268 73.252 538.996 73.448 539.472 73.84L538.436 76.164C537.988 75.856 537.344 75.632 536.7 75.632C535.076 75.632 534.068 77.032 534.068 79.272ZM552.625 75.8V73.588H554.865V70.256H557.329V73.588H561.137V75.8H557.357V82.884C557.357 84.312 558.001 85.012 559.205 85.012C559.877 85.012 560.549 84.76 560.941 84.312L562.089 86.188C561.473 86.804 560.353 87.336 558.869 87.336C556.349 87.336 554.837 85.852 554.837 82.968V75.8H552.625ZM570.104 87.336C566.016 87.336 563.076 84.172 563.076 80.28C563.076 76.388 565.904 73.252 569.712 73.252C573.464 73.252 576.32 76.248 576.32 80.028C576.32 80.364 576.292 80.728 576.236 80.924H565.596C565.876 83.332 567.64 85.124 570.188 85.124C571.7 85.124 573.044 84.536 573.94 83.64L575.256 85.348C574.164 86.524 572.26 87.336 570.104 87.336ZM569.74 75.38C567.556 75.38 566.016 77.032 565.652 79.272H573.772C573.38 76.78 571.84 75.38 569.74 75.38ZM582.1 79.272V87H579.608V73.588H582.1V75.268C582.828 74.036 583.976 73.252 585.46 73.252C586.3 73.252 587.028 73.448 587.504 73.84L586.468 76.164C586.02 75.856 585.376 75.632 584.732 75.632C583.108 75.632 582.1 77.032 582.1 79.272ZM592.703 79.188V87H590.211V73.588H592.703V75.268C593.515 74.036 594.859 73.252 596.567 73.252C598.667 73.252 600.235 74.26 601.047 75.968C601.775 74.4 603.259 73.252 605.415 73.252C608.523 73.252 610.539 75.352 610.539 78.796V87H608.047V79.188C608.047 76.976 606.843 75.576 604.855 75.576C602.839 75.576 601.607 76.976 601.607 79.188V87H599.143V79.188C599.143 76.976 597.911 75.576 595.923 75.576C593.907 75.576 592.703 76.976 592.703 79.188ZM617.333 73.588V87H614.841V73.588H617.333ZM616.073 71.264C615.233 71.264 614.533 70.564 614.533 69.724C614.533 68.884 615.233 68.184 616.073 68.184C616.913 68.184 617.613 68.884 617.613 69.724C617.613 70.564 616.913 71.264 616.073 71.264ZM624.326 79.188V87H621.834V73.588H624.326V75.24C625.166 73.98 626.594 73.252 628.358 73.252C631.522 73.252 633.566 75.408 633.566 78.796V87H631.074V79.188C631.074 76.976 629.786 75.576 627.686 75.576C625.586 75.576 624.326 76.976 624.326 79.188ZM648.071 87V84.9C647.035 86.384 645.411 87.336 643.367 87.336C639.727 87.336 636.871 84.34 636.871 80.28C636.871 76.304 639.615 73.252 643.367 73.252C645.411 73.252 647.035 74.148 648.071 75.604V73.588H650.563V87H648.071ZM643.731 85.012C646.251 85.012 648.071 82.884 648.071 80.28C648.071 77.648 646.251 75.576 643.731 75.576C641.211 75.576 639.363 77.648 639.363 80.28C639.363 82.884 641.211 85.012 643.731 85.012ZM653.587 75.8V73.588H655.827V70.256H658.291V73.588H662.099V75.8H658.319V82.884C658.319 84.312 658.963 85.012 660.167 85.012C660.839 85.012 661.511 84.76 661.903 84.312L663.051 86.188C662.435 86.804 661.315 87.336 659.831 87.336C657.311 87.336 655.799 85.852 655.799 82.968V75.8H653.587ZM671.066 87.336C666.978 87.336 664.038 84.172 664.038 80.28C664.038 76.388 666.866 73.252 670.674 73.252C674.426 73.252 677.282 76.248 677.282 80.028C677.282 80.364 677.254 80.728 677.198 80.924H666.558C666.838 83.332 668.602 85.124 671.15 85.124C672.662 85.124 674.006 84.536 674.902 83.64L676.218 85.348C675.126 86.524 673.222 87.336 671.066 87.336ZM670.702 75.38C668.518 75.38 666.978 77.032 666.614 79.272H674.734C674.342 76.78 672.802 75.38 670.702 75.38ZM686.45 85.012C688.97 85.012 690.79 82.884 690.79 80.28C690.79 77.648 688.97 75.576 686.45 75.576C683.93 75.576 682.082 77.648 682.082 80.28C682.082 82.884 683.93 85.012 686.45 85.012ZM690.79 67.736H693.282V87H690.79V84.9C689.754 86.384 688.13 87.336 686.086 87.336C682.446 87.336 679.59 84.34 679.59 80.28C679.59 76.304 682.334 73.252 686.086 73.252C688.13 73.252 689.754 74.148 690.79 75.604V67.736ZM726.547 73.588H729.207L724.895 87H721.843L718.567 76.752L715.319 87H712.491L708.179 73.588H710.839L713.947 84.228L717.307 73.588H720.023L723.411 84.256L726.547 73.588ZM734.628 73.588V87H732.136V73.588H734.628ZM733.368 71.264C732.528 71.264 731.828 70.564 731.828 69.724C731.828 68.884 732.528 68.184 733.368 68.184C734.208 68.184 734.908 68.884 734.908 69.724C734.908 70.564 734.208 71.264 733.368 71.264ZM737.617 75.8V73.588H739.857V70.256H742.321V73.588H746.129V75.8H742.349V82.884C742.349 84.312 742.993 85.012 744.197 85.012C744.869 85.012 745.541 84.76 745.933 84.312L747.081 86.188C746.465 86.804 745.345 87.336 743.861 87.336C741.341 87.336 739.829 85.852 739.829 82.968V75.8H737.617ZM752.279 79.188V87H749.787V67.736H752.279V75.24C753.119 73.98 754.547 73.252 756.311 73.252C759.475 73.252 761.519 75.408 761.519 78.796V87H759.027V79.188C759.027 76.976 757.739 75.576 755.639 75.576C753.539 75.576 752.279 76.976 752.279 79.188ZM771.656 87.336C767.82 87.336 764.824 84.172 764.824 80.28C764.824 76.388 767.82 73.252 771.656 73.252C775.52 73.252 778.516 76.388 778.516 80.28C778.516 84.172 775.52 87.336 771.656 87.336ZM771.684 85.012C774.204 85.012 776.024 82.884 776.024 80.28C776.024 77.648 774.204 75.576 771.684 75.576C769.164 75.576 767.316 77.648 767.316 80.28C767.316 82.884 769.164 85.012 771.684 85.012ZM784.334 73.588V81.008C784.334 83.36 785.706 84.928 787.778 84.928C789.906 84.928 791.278 83.36 791.278 81.008V73.588H793.77V81.204C793.77 84.844 791.39 87.252 787.778 87.252C784.194 87.252 781.842 84.844 781.842 81.204V73.588H784.334ZM796.571 75.8V73.588H798.811V70.256H801.275V73.588H805.083V75.8H801.303V82.884C801.303 84.312 801.947 85.012 803.151 85.012C803.823 85.012 804.495 84.76 804.887 84.312L806.035 86.188C805.419 86.804 804.299 87.336 802.815 87.336C800.295 87.336 798.783 85.852 798.783 82.968V75.8H796.571ZM820.699 73.588H823.191V75.632C824.227 74.176 825.851 73.252 827.867 73.252C831.507 73.252 834.391 76.248 834.391 80.308C834.391 84.284 831.619 87.336 827.867 87.336C825.851 87.336 824.227 86.468 823.191 85.04V92.488H820.699V73.588ZM827.559 75.576C825.011 75.576 823.191 77.704 823.191 80.308C823.191 82.94 825.011 85.012 827.559 85.012C830.079 85.012 831.899 82.94 831.899 80.308C831.899 77.704 830.079 75.576 827.559 75.576ZM840.438 79.272V87H837.946V73.588H840.438V75.268C841.166 74.036 842.314 73.252 843.798 73.252C844.638 73.252 845.366 73.448 845.842 73.84L844.806 76.164C844.358 75.856 843.714 75.632 843.07 75.632C841.446 75.632 840.438 77.032 840.438 79.272ZM851.041 73.588V87H848.549V73.588H851.041ZM849.781 71.264C848.941 71.264 848.241 70.564 848.241 69.724C848.241 68.884 848.941 68.184 849.781 68.184C850.621 68.184 851.321 68.884 851.321 69.724C851.321 70.564 850.621 71.264 849.781 71.264ZM861.394 87.336C857.558 87.336 854.562 84.172 854.562 80.28C854.562 76.388 857.558 73.252 861.394 73.252C865.258 73.252 868.254 76.388 868.254 80.28C868.254 84.172 865.258 87.336 861.394 87.336ZM861.422 85.012C863.942 85.012 865.762 82.884 865.762 80.28C865.762 77.648 863.942 75.576 861.422 75.576C858.902 75.576 857.054 77.648 857.054 80.28C857.054 82.884 858.902 85.012 861.422 85.012ZM874.297 79.272V87H871.805V73.588H874.297V75.268C875.025 74.036 876.173 73.252 877.657 73.252C878.497 73.252 879.225 73.448 879.701 73.84L878.665 76.164C878.217 75.856 877.573 75.632 876.929 75.632C875.305 75.632 874.297 77.032 874.297 79.272ZM4.9 111.188V119H2.408V105.588H4.9V107.24C5.74 105.98 7.168 105.252 8.932 105.252C12.096 105.252 14.14 107.408 14.14 110.796V119H11.648V111.188C11.648 108.976 10.36 107.576 8.26 107.576C6.16 107.576 4.9 108.976 4.9 111.188ZM24.2769 119.336C20.4409 119.336 17.4449 116.172 17.4449 112.28C17.4449 108.388 20.4409 105.252 24.2769 105.252C28.1409 105.252 31.1369 108.388 31.1369 112.28C31.1369 116.172 28.1409 119.336 24.2769 119.336ZM24.3049 117.012C26.8249 117.012 28.6449 114.884 28.6449 112.28C28.6449 109.648 26.8249 107.576 24.3049 107.576C21.7849 107.576 19.9369 109.648 19.9369 112.28C19.9369 114.884 21.7849 117.012 24.3049 117.012ZM33.1758 107.8V105.588H35.4158V102.256H37.8798V105.588H41.6878V107.8H37.9078V114.884C37.9078 116.312 38.5518 117.012 39.7558 117.012C40.4278 117.012 41.0998 116.76 41.4918 116.312L42.6398 118.188C42.0238 118.804 40.9038 119.336 39.4198 119.336C36.8998 119.336 35.3878 117.852 35.3878 114.968V107.8H33.1758ZM47.8373 105.588V119H45.3453V105.588H47.8373ZM46.5773 103.264C45.7373 103.264 45.0373 102.564 45.0373 101.724C45.0373 100.884 45.7373 100.184 46.5773 100.184C47.4173 100.184 48.1173 100.884 48.1173 101.724C48.1173 102.564 47.4173 103.264 46.5773 103.264ZM61.8868 108.892C60.9908 108.052 59.8148 107.576 58.3588 107.576C55.6988 107.576 53.8508 109.648 53.8508 112.28C53.8508 114.884 55.6988 117.012 58.3308 117.012C59.7868 117.012 61.0468 116.536 61.9428 115.64L63.2308 117.46C62.1668 118.608 60.2908 119.336 58.2468 119.336C54.3268 119.336 51.3588 116.172 51.3588 112.28C51.3588 108.388 54.3548 105.252 58.2748 105.252C60.4308 105.252 62.1948 105.98 63.3148 107.128L61.8868 108.892ZM71.724 119.336C67.636 119.336 64.696 116.172 64.696 112.28C64.696 108.388 67.524 105.252 71.332 105.252C75.084 105.252 77.94 108.248 77.94 112.028C77.94 112.364 77.912 112.728 77.856 112.924H67.216C67.496 115.332 69.26 117.124 71.808 117.124C73.32 117.124 74.664 116.536 75.56 115.64L76.876 117.348C75.784 118.524 73.88 119.336 71.724 119.336ZM71.36 107.38C69.176 107.38 67.636 109.032 67.272 111.272H75.392C75 108.78 73.46 107.38 71.36 107.38ZM81.2346 119.252C80.3106 119.252 79.5266 118.496 79.5266 117.544C79.5266 116.592 80.3106 115.78 81.2346 115.78C82.2146 115.78 82.9986 116.592 82.9986 117.544C82.9986 118.496 82.2146 119.252 81.2346 119.252Z" fill="white"/>
</svg>
