<svg width="709" height="643" viewBox="0 0 709 643" fill="none" xmlns="http://www.w3.org/2000/svg">
<path d="M354.183 4.00879C381.534 3.83913 408.845 6.16114 435.782 10.9482C456.751 14.8539 482.064 20.6275 499.276 31.1426L499.282 31.1465L499.289 31.1504C511.433 38.51 524.82 44.7132 537.361 51.1357C549.646 57.4265 561.304 64.0106 571.235 72.3926L572.19 73.209L572.193 73.2109C578.742 78.8715 586.039 84.186 593.007 89.4082C599.603 94.3518 605.944 99.2393 611.477 104.468L612.572 105.518C628.808 121.367 643.717 137.974 651.295 157.928L651.65 158.881V158.882C656.044 170.871 662.362 181.964 668.669 192.708C674.832 203.208 680.96 213.336 685.698 224.037L686.152 225.075L686.154 225.08C698.901 254.41 704.213 288.613 704.376 320.468L704.38 321.982C704.356 341.065 702.798 360.193 697.242 378.294L696.692 380.043L696.691 380.044C695.105 384.97 694.323 389.91 693.677 394.618C693.018 399.417 692.509 403.882 691.5 408.361C689.491 417.204 686.577 425.81 682.807 434.041L682.041 435.683L682.038 435.688C678.449 443.272 674.166 450.501 669.246 457.281C664.489 463.566 660.25 470.233 656.569 477.215L656.544 477.263L656.52 477.312C652.476 485.519 647.493 493.216 641.676 500.246L640.501 501.643C635.286 507.598 631.726 513.028 628.293 518.157C625.062 522.985 621.923 527.58 617.487 532.48L616.582 533.465L616.581 533.467C606.047 544.759 594.111 552.331 581.761 562.459L581.75 562.468L581.738 562.478C566.79 574.92 550.541 585.679 533.28 594.561C515.346 603.685 496.67 611.239 477.457 617.142C470.473 619.205 463.551 621.815 456.999 624.014C450.731 626.117 444.542 627.941 438.062 628.963L436.763 629.156L436.735 629.16L436.709 629.164C433.886 629.598 431.489 629.785 428.606 630.139C425.839 630.478 422.932 630.943 419.793 631.902L419.715 631.927L419.638 631.953C414.008 633.929 408.162 635.212 402.229 635.774C386.604 636.736 371.543 638.213 356.248 638.772L353.18 638.872H353.179C345.777 639.082 338.387 639.056 330.971 638.627H330.97C324.246 638.219 317.595 637.292 310.763 636.344C304.402 635.461 297.884 634.562 291.256 634.125L289.929 634.044H289.927C276.223 633.281 262.705 630.504 249.8 625.801L248.553 625.34C245.524 624.199 242.705 622.728 239.517 621.155C236.612 619.722 233.456 618.237 230.002 617.211L229.307 617.012L229.304 617.011L227.217 616.424C217.499 613.618 208.06 609.907 199.021 605.34L197.09 604.349L197.087 604.347L196.408 604.002C193.008 602.308 189.463 601.1 186.14 600.013C182.73 598.898 179.595 597.921 176.619 596.653L176.025 596.396L176.013 596.39L175.214 596.027C171.257 594.177 167.847 591.723 164.435 588.926C161.201 586.275 157.505 582.896 153.755 579.969L153.004 579.39H153.003C149.395 576.641 145.367 574.573 141.667 572.689C138.098 570.873 134.827 569.222 131.891 567.189L131.308 566.778C128.755 564.933 126.33 562.882 123.795 560.711C121.296 558.57 118.67 556.296 115.881 554.185H115.882C111.044 550.518 106.377 546.684 101.882 542.681L99.9658 540.955L99.9609 540.95L98.1484 539.286C89.7352 531.474 81.9414 523.008 74.8389 513.966L73.3281 512.02L73.3262 512.018L72.8018 511.318C71.5999 509.682 70.5322 507.987 69.2061 506.034C67.7642 503.911 66.1022 501.626 63.9893 499.604L63.9668 499.582L63.9443 499.562L63.2676 498.925C59.918 495.741 56.8486 492.267 54.0957 488.543C48.2534 480.026 43.3979 470.861 39.624 461.226L39.6162 461.208L39.6094 461.189L39.3604 460.555C38.7942 459.064 38.3194 457.517 37.8066 455.84C37.2388 453.983 36.6176 451.941 35.8115 449.953H35.8125C34.9573 447.828 33.6737 445.974 32.5518 444.444C31.346 442.801 30.3835 441.596 29.5674 440.265C25.5843 433.397 22.3201 426.129 19.8301 418.577L19.8164 418.536L19.8027 418.496L19.4521 417.48C15.9278 407.007 15.2679 396.95 13.3887 385.323H13.3896C12.8574 381.914 11.8749 378.618 10.9277 375.558C10.0767 372.808 9.26055 370.267 8.64941 367.709L8.40039 366.611C7.08113 360.442 6.07618 354.208 5.37305 347.946C4.13833 336.629 3.73523 325.235 4.16797 313.859L4.26562 311.585L4.2666 311.571C4.9529 296.101 8.56529 280.916 12.0322 265.231L12.0312 265.23C16.4053 245.496 19.0099 227.407 27.1875 209.611C35.3338 191.893 44.9161 174.743 54.7354 157.567L54.7363 157.568C60.2896 147.856 67.631 139.498 75.6924 131.287C83.615 123.217 92.5522 114.994 100.487 106.192L100.488 106.193C119.077 85.613 136.83 69.623 162.301 57.7656L162.3 57.7646C176.335 51.233 189.573 44.3267 202.843 37.2822L216.154 30.2012L216.155 30.2002C236.682 19.2902 257.171 15.894 280.759 11.9844L280.758 11.9834C305.603 7.8684 329.189 4.00879 354.158 4.00879H354.183Z" stroke="#151011" stroke-width="8"/>
</svg>
