<svg width="709" height="643" viewBox="0 0 709 643" fill="none" xmlns="http://www.w3.org/2000/svg">
<path d="M354.161 0.508789C381.73 0.337786 409.257 2.67896 436.408 7.50488V7.50586C457.007 11.3421 482.455 17.0772 500.259 27.6494L501.101 28.1562L501.103 28.1572C513.104 35.4307 526.244 41.5102 538.957 48.0205C551.29 54.336 563.243 61.0667 573.495 69.7197L574.481 70.5625L574.482 70.5635C580.914 76.1221 588.077 81.3399 595.105 86.6074C602.142 91.8811 609.05 97.2079 615.012 103.008V103.009C631.288 118.897 646.696 135.959 654.568 156.688L654.938 157.678C659.21 169.337 665.377 180.186 671.688 190.937C677.807 201.362 684.059 211.69 688.9 222.625L689.364 223.685V223.686C702.554 254.037 707.88 289.365 707.88 321.982L707.872 323.846C707.75 342.487 706.105 361.347 700.588 379.322L700.023 381.117C698.537 385.732 697.787 390.414 697.145 395.094C696.501 399.785 695.967 404.462 694.915 409.13C692.853 418.21 689.86 427.047 685.988 435.499L685.202 437.185C681.52 444.964 677.127 452.38 672.08 459.336C667.712 465.102 663.79 471.198 660.348 477.569L659.665 478.847L659.659 478.859C655.495 487.311 650.364 495.237 644.372 502.478L643.162 503.916C638.105 509.686 634.658 514.938 631.201 520.104C627.958 524.949 624.704 529.723 620.083 534.828L619.141 535.854H619.14C608.741 547.001 596.694 554.872 585.101 564.252L583.98 565.165L583.978 565.167C569.306 577.379 553.397 587.99 536.518 596.823L534.881 597.673C517.327 606.605 499.069 614.049 480.295 619.927L478.477 620.49C471.553 622.535 464.853 625.07 458.112 627.332C451.776 629.458 445.373 631.354 438.605 632.421L437.247 632.623L437.24 632.624C434.365 633.066 431.722 633.284 429.032 633.613C426.356 633.941 423.676 634.376 420.815 635.25L420.806 635.253L420.797 635.256C415.256 637.201 409.516 638.505 403.687 639.145L402.535 639.262C387.061 640.212 371.762 641.707 356.36 642.271L353.278 642.37C345.804 642.582 338.309 642.557 330.769 642.121H330.77C323.883 641.704 317.092 640.755 310.281 639.811C303.902 638.926 297.506 638.045 291.029 637.618L289.732 637.539C275.233 636.732 260.935 633.723 247.323 628.616H247.322C244.086 627.397 241.058 625.818 237.969 624.294C235.082 622.87 232.152 621.5 229.009 620.567L228.378 620.387H228.377C217.698 617.457 207.335 613.462 197.442 608.464L195.471 607.451H195.47C192.145 605.72 188.593 604.497 185.052 603.339C181.721 602.249 178.405 601.219 175.239 599.87L174.608 599.596L174.606 599.595L173.73 599.198C169.396 597.171 165.73 594.514 162.216 591.633C158.724 588.77 155.327 585.634 151.627 582.747L150.883 582.174H150.882C147.562 579.645 143.812 577.709 140.079 575.809C136.333 573.902 132.606 572.03 129.26 569.616H129.259C126.575 567.676 124.05 565.537 121.519 563.369C118.991 561.205 116.454 559.008 113.768 556.974H113.767C108.856 553.252 104.119 549.359 99.5547 545.295L97.6094 543.542H97.6084C88.3545 535.141 79.8176 525.97 72.0869 516.128L70.5518 514.151L70.5508 514.15L69.9932 513.408C68.711 511.662 67.5511 509.826 66.3115 508.001C64.9919 506.058 63.5942 504.147 61.9092 502.465L61.5684 502.132L61.5635 502.127L60.8555 501.462C57.341 498.121 54.1228 494.475 51.2383 490.565C45.6077 482.364 40.8694 473.576 37.1045 464.354L36.3652 462.502L36.3633 462.498L36.0908 461.803C35.4729 460.176 34.9669 458.521 34.46 456.863C33.8829 454.976 33.3039 453.082 32.5645 451.26H32.5654C31.8848 449.568 30.8287 448.011 29.7305 446.515C28.7589 445.19 27.7628 443.924 26.9092 442.611L26.5527 442.046C22.6987 435.405 19.4985 428.399 16.9971 421.131L16.5059 419.673L16.5029 419.663L16.1396 418.609C12.4814 407.735 11.749 397.107 9.93066 385.863H9.93164C9.44295 382.733 8.5328 379.655 7.58496 376.593C6.63393 373.52 5.64592 370.468 4.97754 367.343C3.80078 361.84 2.86968 356.289 2.17578 350.715L1.89355 348.324C0.640394 336.837 0.231685 325.273 0.670898 313.727L0.769531 311.418V311.416C1.38448 297.554 4.29346 283.936 7.31738 270.314L8.61426 264.477C12.9172 245.063 15.6239 226.391 24.0068 208.149C31.1965 192.511 39.4854 177.337 48.0254 162.278L51.6982 155.831C57.4746 145.729 65.0627 137.118 73.1943 128.835C81.3086 120.57 90.0024 112.595 97.8896 103.847L97.8906 103.848C116.342 83.4184 134.19 67.2397 159.607 55.1641L160.823 54.5928C174.78 48.0975 187.943 41.2291 201.196 34.1934L214.513 27.1094C234.302 16.5916 254.04 12.8918 275.806 9.25879L280.187 8.53125C304.22 4.55064 327.365 0.753946 351.79 0.520508L354.158 0.508789H354.161Z" fill="#F8F1E7" stroke="#270C04"/>
<mask id="mask0_14_2" style="mask-type:alpha" maskUnits="userSpaceOnUse" x="0" y="0" width="709" height="643">
<path d="M354.161 0.508789C381.73 0.337786 409.257 2.67896 436.408 7.50488V7.50586C457.007 11.3421 482.455 17.0772 500.259 27.6494L501.101 28.1562L501.103 28.1572C513.104 35.4307 526.244 41.5102 538.957 48.0205C551.29 54.336 563.243 61.0667 573.495 69.7197L574.481 70.5625L574.482 70.5635C580.914 76.1221 588.077 81.3399 595.105 86.6074C602.142 91.8811 609.05 97.2079 615.012 103.008V103.009C631.288 118.897 646.696 135.959 654.568 156.688L654.938 157.678C659.21 169.337 665.377 180.186 671.688 190.937C677.807 201.362 684.059 211.69 688.9 222.625L689.364 223.685V223.686C702.554 254.037 707.88 289.365 707.88 321.982L707.872 323.846C707.75 342.487 706.105 361.347 700.588 379.322L700.023 381.117C698.537 385.732 697.787 390.414 697.145 395.094C696.501 399.785 695.967 404.462 694.915 409.13C692.853 418.21 689.86 427.047 685.988 435.499L685.202 437.185C681.52 444.964 677.127 452.38 672.08 459.336C667.712 465.102 663.79 471.198 660.348 477.569L659.665 478.847L659.659 478.859C655.495 487.311 650.364 495.237 644.372 502.478L643.162 503.916C638.105 509.686 634.658 514.938 631.201 520.104C627.958 524.949 624.704 529.723 620.083 534.828L619.141 535.854H619.14C608.741 547.001 596.694 554.872 585.101 564.252L583.98 565.165L583.978 565.167C569.306 577.379 553.397 587.99 536.518 596.823L534.881 597.673C517.327 606.605 499.069 614.049 480.295 619.927L478.477 620.49C471.553 622.535 464.853 625.07 458.112 627.332C451.776 629.458 445.373 631.354 438.605 632.421L437.247 632.623L437.24 632.624C434.365 633.066 431.722 633.284 429.032 633.613C426.356 633.941 423.676 634.376 420.815 635.25L420.806 635.253L420.797 635.256C415.256 637.201 409.516 638.505 403.687 639.145L402.535 639.262C387.061 640.212 371.762 641.707 356.36 642.271L353.278 642.37C345.804 642.582 338.309 642.557 330.769 642.121H330.77C323.883 641.704 317.092 640.755 310.281 639.811C303.902 638.926 297.506 638.045 291.029 637.618L289.732 637.539C275.233 636.732 260.935 633.723 247.323 628.616H247.322C244.086 627.397 241.058 625.818 237.969 624.294C235.082 622.87 232.152 621.5 229.009 620.567L228.378 620.387H228.377C217.698 617.457 207.335 613.462 197.442 608.464L195.471 607.451H195.47C192.145 605.72 188.593 604.497 185.052 603.339C181.721 602.249 178.405 601.219 175.239 599.87L174.608 599.596L174.606 599.595L173.73 599.198C169.396 597.171 165.73 594.514 162.216 591.633C158.724 588.77 155.327 585.634 151.627 582.747L150.883 582.174H150.882C147.562 579.645 143.812 577.709 140.079 575.809C136.333 573.902 132.606 572.03 129.26 569.616H129.259C126.575 567.676 124.05 565.537 121.519 563.369C118.991 561.205 116.454 559.008 113.768 556.974H113.767C108.856 553.252 104.119 549.359 99.5547 545.295L97.6094 543.542H97.6084C88.3545 535.141 79.8176 525.97 72.0869 516.128L70.5518 514.151L70.5508 514.15L69.9932 513.408C68.711 511.662 67.5511 509.826 66.3115 508.001C64.9919 506.058 63.5942 504.147 61.9092 502.465L61.5684 502.132L61.5635 502.127L60.8555 501.462C57.341 498.121 54.1228 494.475 51.2383 490.565C45.6077 482.364 40.8694 473.576 37.1045 464.354L36.3652 462.502L36.3633 462.498L36.0908 461.803C35.4729 460.176 34.9669 458.521 34.46 456.863C33.8829 454.976 33.3039 453.082 32.5645 451.26H32.5654C31.8848 449.568 30.8287 448.011 29.7305 446.515C28.7589 445.19 27.7628 443.924 26.9092 442.611L26.5527 442.046C22.6987 435.405 19.4985 428.399 16.9971 421.131L16.5059 419.673L16.5029 419.663L16.1396 418.609C12.4814 407.735 11.749 397.107 9.93066 385.863H9.93164C9.44295 382.733 8.5328 379.655 7.58496 376.593C6.63393 373.52 5.64592 370.468 4.97754 367.343C3.80078 361.84 2.86968 356.289 2.17578 350.715L1.89355 348.324C0.640394 336.837 0.231685 325.273 0.670898 313.727L0.769531 311.418V311.416C1.38448 297.554 4.29346 283.936 7.31738 270.314L8.61426 264.477C12.9172 245.063 15.6239 226.391 24.0068 208.149C31.1965 192.511 39.4854 177.337 48.0254 162.278L51.6982 155.831C57.4746 145.729 65.0627 137.118 73.1943 128.835C81.3086 120.57 90.0024 112.595 97.8896 103.847L97.8906 103.848C116.342 83.4184 134.19 67.2397 159.607 55.1641L160.823 54.5928C174.78 48.0975 187.943 41.2291 201.196 34.1934L214.513 27.1094C234.302 16.5916 254.04 12.8918 275.806 9.25879L280.187 8.53125C304.22 4.55064 327.365 0.753946 351.79 0.520508L354.158 0.508789H354.161Z" fill="#EDECED" stroke="#270C04"/>
</mask>
<g mask="url(#mask0_14_2)">
<path d="M354.183 4.00879C381.534 3.83913 408.845 6.16114 435.782 10.9482C456.751 14.8539 482.064 20.6275 499.276 31.1426L499.282 31.1465L499.289 31.1504C511.433 38.51 524.82 44.7132 537.361 51.1357C549.646 57.4265 561.304 64.0106 571.235 72.3926L572.19 73.209L572.193 73.2109C578.742 78.8715 586.039 84.186 593.007 89.4082C599.603 94.3518 605.944 99.2393 611.477 104.468L612.572 105.518C628.808 121.367 643.717 137.974 651.295 157.928L651.65 158.881V158.882C656.044 170.871 662.362 181.964 668.669 192.708C674.832 203.208 680.96 213.336 685.698 224.037L686.152 225.075L686.154 225.08C698.901 254.41 704.213 288.613 704.376 320.468L704.38 321.982C704.356 341.065 702.798 360.193 697.242 378.294L696.692 380.043L696.691 380.044C695.105 384.97 694.323 389.91 693.677 394.618C693.018 399.417 692.509 403.882 691.5 408.361C689.491 417.204 686.577 425.81 682.807 434.041L682.041 435.683L682.038 435.688C678.449 443.272 674.166 450.501 669.246 457.281C664.489 463.566 660.25 470.233 656.569 477.215L656.544 477.263L656.52 477.312C652.476 485.519 647.493 493.216 641.676 500.246L640.501 501.643C635.286 507.598 631.726 513.028 628.293 518.157C625.062 522.985 621.923 527.58 617.487 532.48L616.582 533.465L616.581 533.467C606.047 544.759 594.111 552.331 581.761 562.459L581.75 562.468L581.738 562.478C566.79 574.92 550.541 585.679 533.28 594.561C515.346 603.685 496.67 611.239 477.457 617.142C470.473 619.205 463.551 621.815 456.999 624.014C450.731 626.117 444.542 627.941 438.062 628.963L436.763 629.156L436.735 629.16L436.709 629.164C433.886 629.598 431.489 629.785 428.606 630.139C425.839 630.478 422.932 630.943 419.793 631.902L419.715 631.927L419.638 631.953C414.008 633.929 408.162 635.212 402.229 635.774C386.604 636.736 371.543 638.213 356.248 638.772L353.18 638.872H353.179C345.777 639.082 338.387 639.056 330.971 638.627H330.97C324.246 638.219 317.595 637.292 310.763 636.344C304.402 635.461 297.884 634.562 291.256 634.125L289.929 634.044H289.927C276.223 633.281 262.705 630.504 249.8 625.801L248.553 625.34C245.524 624.199 242.705 622.728 239.517 621.155C236.612 619.722 233.456 618.237 230.002 617.211L229.307 617.012L229.304 617.011L227.217 616.424C217.499 613.618 208.06 609.907 199.021 605.34L197.09 604.349L197.087 604.347L196.408 604.002C193.008 602.308 189.463 601.1 186.14 600.013C182.73 598.898 179.595 597.921 176.619 596.653L176.025 596.396L176.013 596.39L175.214 596.027C171.257 594.177 167.847 591.723 164.435 588.926C161.201 586.275 157.505 582.896 153.755 579.969L153.004 579.39H153.003C149.395 576.641 145.367 574.573 141.667 572.689C138.098 570.873 134.827 569.222 131.891 567.189L131.308 566.778C128.755 564.933 126.33 562.882 123.795 560.711C121.296 558.57 118.67 556.296 115.881 554.185H115.882C111.044 550.518 106.377 546.684 101.882 542.681L99.9658 540.955L99.9609 540.95L98.1484 539.286C89.7352 531.474 81.9414 523.008 74.8389 513.966L73.3281 512.02L73.3262 512.018L72.8018 511.318C71.5999 509.682 70.5322 507.987 69.2061 506.034C67.7642 503.911 66.1022 501.626 63.9893 499.604L63.9668 499.582L63.9443 499.562L63.2676 498.925C59.918 495.741 56.8486 492.267 54.0957 488.543C48.2534 480.026 43.3979 470.861 39.624 461.226L39.6162 461.208L39.6094 461.189L39.3604 460.555C38.7942 459.064 38.3194 457.517 37.8066 455.84C37.2388 453.983 36.6176 451.941 35.8115 449.953H35.8125C34.9573 447.828 33.6737 445.974 32.5518 444.444C31.346 442.801 30.3835 441.596 29.5674 440.265C25.5843 433.397 22.3201 426.129 19.8301 418.577L19.8164 418.536L19.8027 418.496L19.4521 417.48C15.9278 407.007 15.2679 396.95 13.3887 385.323H13.3896C12.8574 381.914 11.8749 378.618 10.9277 375.558C10.0767 372.808 9.26055 370.267 8.64941 367.709L8.40039 366.611C7.08113 360.442 6.07618 354.208 5.37305 347.946C4.13833 336.629 3.73523 325.235 4.16797 313.859L4.26562 311.585L4.2666 311.571C4.9529 296.101 8.56529 280.916 12.0322 265.231L12.0312 265.23C16.4053 245.496 19.0099 227.407 27.1875 209.611C35.3338 191.893 44.9161 174.743 54.7354 157.567L54.7363 157.568C60.2896 147.856 67.631 139.498 75.6924 131.287C83.615 123.217 92.5522 114.994 100.487 106.192L100.488 106.193C119.077 85.613 136.83 69.623 162.301 57.7656L162.3 57.7646C176.335 51.233 189.573 44.3267 202.843 37.2822L216.154 30.2012L216.155 30.2002C236.682 19.2902 257.171 15.894 280.759 11.9844L280.758 11.9834C305.603 7.8684 329.189 4.00879 354.158 4.00879H354.183Z" stroke="#151011" stroke-width="8"/>
</g>
</svg>
